PathFileType	4	(X/Y/Z)	C:\Users\dbl\Desktop\20210112\20210112\bx_n_0_1801.trc
DataRate	CameraRate	NumFrames	NumMarkers	Units	OrigDataRate	OrigDataStartFrame	OrigNumFrames
50.00	50.00	       7	43	mm	50.00	1	       397
Frame#	Time	Top.Head			R.Acromium			L.Acromium			Sternum			R.ASIS			L.ASIS			V.Sacral			R.Thigh.Upper			R.Thigh.Front			R.Thigh.Rear			R.Knee.Lat			R.Knee.Med			R.Shank.Upper			R.Shank.Front			R.Shank.Rear			R.Ankle.Lat			R.Midfoot.Lat			R.Toe.Lat			R.Toe.Tip			R.Toe.Med			R.Ankle.Med			R.Midfoot.Sup			R.Heel			L.Thigh.Upper			L.Thigh.Front			L.Thigh.Rear			L.Knee.Lat			L.Knee.Med			L.Shank.Upper			L.Shank.Front			L.Shank.Rear			L.Ankle.Lat			L.Midfoot.Lat			L.Toe.Lat			L.Toe.Tip			L.Toe.Med			L.Ankle.Med			L.Midfoot.Sup			L.Heel			origin1 front left			origin2 front right			origin 3 back right			origin 4 back leftt			
		X1	Y1	Z1	X2	Y2	Z2	X3	Y3	Z3	X4	Y4	Z4	X5	Y5	Z5	X6	Y6	Z6	X7	Y7	Z7	X8	Y8	Z8	X9	Y9	Z9	X10	Y10	Z10	X11	Y11	Z11	X12	Y12	Z12	X13	Y13	Z13	X14	Y14	Z14	X15	Y15	Z15	X16	Y16	Z16	X17	Y17	Z17	X18	Y18	Z18	X19	Y19	Z19	X20	Y20	Z20	X21	Y21	Z21	X22	Y22	Z22	X23	Y23	Z23	X24	Y24	Z24	X25	Y25	Z25	X26	Y26	Z26	X27	Y27	Z27	X28	Y28	Z28	X29	Y29	Z29	X30	Y30	Z30	X31	Y31	Z31	X32	Y32	Z32	X33	Y33	Z33	X34	Y34	Z34	X35	Y35	Z35	X36	Y36	Z36	X37	Y37	Z37	X38	Y38	Z38	X39	Y39	Z39	X40	Y40	Z40	X41	Y41	Z41	X42	Y42	Z42	X43	Y43	Z43	

1	0.000	-667.97595	115.43124	1850.37744	-704.32190	-73.47479	1541.95776	-725.29333	285.62949	1536.00476	-612.95605	101.50633	1354.24695	-620.85010	-8.15734	1058.09302	-619.56409	239.79660	1069.26746	-815.50867	99.85063	1060.79199	-679.66248	-72.93955	874.05066	-602.20013	-4.94017	807.63593	-695.89795	-61.73406	759.08362	-713.89899	-35.19912	616.21094	-701.03314	74.60091	574.44788	-719.86426	-32.40458	568.71692	-670.30847	17.24286	520.96069	-760.97235	-45.82882	487.86237	-758.02228	-19.03462	206.77943	-647.82300	-66.03469	163.78337	-605.89764	-71.28929	159.36852	-548.90839	-26.78827	164.70682	-600.10321	28.58736	166.69147	-720.61469	71.60564	216.36598	-674.83240	55.20986	157.33308	-792.97968	38.57022	174.05876	-693.86017	286.21475	874.43573	-597.35742	220.38490	798.03436	-698.58893	271.03638	745.25586	-732.19659	253.53366	641.12256	-694.10779	143.10924	576.66449	-727.95496	247.34563	575.99347	-675.76752	204.00345	534.71594	-766.02527	259.03558	501.67551	-764.84003	227.98456	205.63336	-652.63898	292.02280	157.02696	-615.39874	297.83887	158.52104	-552.53375	244.36664	166.67862	-589.22607	208.07106	174.33086	-714.39929	150.67802	217.80296	-675.21564	166.41171	158.51358	-795.28510	180.28189	184.15236	-528.29248	303.97745	146.42059	-517.83917	-72.96986	143.28557	-875.83881	-78.68930	141.40500	-882.61194	296.15863	144.60854	
2	0.020	-667.60968	115.30001	1850.40710	-704.39893	-73.27679	1541.80090	-725.21759	285.81873	1536.03918	-613.11560	101.58475	1354.23560	-621.27448	-7.96607	1058.08875	-619.74823	239.81973	1069.24182	-815.83020	99.89731	1060.89746	-680.09045	-72.97836	874.06665	-602.48041	-4.91327	807.81372	-696.23083	-61.58976	759.01624	-713.98486	-35.07250	616.29449	-701.11536	74.78763	574.44678	-719.85590	-32.42307	568.69562	-670.36249	17.31806	520.95874	-761.00012	-45.67462	487.83026	-758.07672	-19.05519	206.83929	-647.85516	-65.92113	163.74533	-605.89905	-71.26329	159.41898	-548.95959	-26.81789	164.63812	-600.12213	28.56180	166.65852	-720.69623	71.64658	216.33743	-674.72144	55.15996	157.31067	-792.90277	38.41632	174.16139	-693.94232	286.33444	874.54388	-597.75470	220.48175	797.88733	-698.98541	271.07083	745.15863	-732.50641	253.50395	641.11224	-694.24445	143.24033	576.68671	-728.12170	247.24268	575.94031	-675.93854	204.05276	534.80072	-766.23492	258.98389	501.63467	-764.84351	227.93777	205.59714	-652.60046	291.95169	157.01259	-615.39563	297.83856	158.52103	-552.58173	244.37431	166.66611	-589.28296	208.04945	174.31287	-714.45551	150.63829	217.78064	-675.34387	166.33350	158.57256	-795.34802	180.22693	184.23535	-528.17981	304.09412	146.57117	-517.85834	-72.97634	143.22223	-875.83795	-78.70110	141.36194	-882.55328	296.18973	144.67003	
3	0.040	-667.24017	115.18048	1850.43604	-704.48315	-73.10712	1541.70972	-725.16016	285.97122	1536.04675	-613.28912	101.68636	1354.21716	-621.65369	-7.78821	1058.12634	-619.92877	239.83339	1069.22644	-816.13104	99.99166	1060.97876	-680.51068	-72.96916	874.07257	-602.73602	-4.88485	807.95453	-696.60516	-61.30792	758.85724	-714.08423	-34.95827	616.38519	-701.21002	74.92320	574.42334	-719.87311	-32.41473	568.68353	-670.40729	17.37205	520.92719	-761.04071	-45.54255	487.81415	-758.12982	-19.05333	206.86786	-647.88342	-65.85727	163.74326	-605.93182	-71.25466	159.43080	-548.99371	-26.84400	164.60902	-600.15289	28.53077	166.63936	-720.74963	71.67619	216.31728	-674.65698	55.13475	157.28249	-792.86963	38.34468	174.23402	-694.04852	286.52252	874.65485	-598.11603	220.56578	797.78778	-699.28815	271.13983	745.08923	-732.82043	253.47687	641.09491	-694.36835	143.41151	576.70264	-728.29291	247.13969	575.90790	-676.09369	204.10770	534.89514	-766.45013	258.98520	501.61560	-764.85168	227.90982	205.56972	-652.57892	291.92712	157.01025	-615.39258	297.83948	158.52306	-552.63263	244.40074	166.64494	-589.34265	208.06761	174.31250	-714.49670	150.62038	217.76701	-675.42310	166.26019	158.63889	-795.38916	180.19505	184.30858	-528.11145	304.16699	146.65787	-517.86865	-72.97867	143.16554	-875.84192	-78.71032	141.35014	-882.50696	296.19690	144.70772	
4	0.060	-666.87469	115.09060	1850.45691	-704.57825	-72.96956	1541.69971	-725.11407	286.08209	1536.02307	-613.46759	101.81165	1354.19482	-621.98096	-7.62404	1058.21631	-620.13306	239.85323	1069.23096	-816.42810	100.13763	1061.01294	-680.90686	-72.90295	874.09546	-602.94934	-4.86069	808.04382	-696.99097	-60.89671	758.60669	-714.20044	-34.83471	616.46533	-701.29102	75.00650	574.40503	-719.93311	-32.37235	568.70081	-670.43353	17.40772	520.88483	-761.09760	-45.40221	487.82211	-758.18005	-19.01881	206.86922	-647.91650	-65.83977	163.76106	-605.98450	-71.26649	159.40152	-549.01001	-26.86091	164.61523	-600.18555	28.49890	166.63475	-720.76062	71.69215	216.29869	-674.64240	55.12894	157.24115	-792.91827	38.36694	174.28503	-694.19324	286.79150	874.77075	-598.42426	220.60573	797.75562	-699.47650	271.22290	745.06122	-733.12903	253.46690	641.08160	-694.46484	143.61450	576.73877	-728.48090	247.06197	575.93500	-676.23029	204.16573	535.01770	-766.65179	259.04327	501.62140	-764.85815	227.90086	205.55766	-652.58533	291.95255	157.02657	-615.39264	297.84259	158.52821	-552.67950	244.45186	166.61786	-589.41895	208.13054	174.32220	-714.51135	150.63132	217.75739	-675.44403	166.20685	158.69482	-795.40326	180.18858	184.36732	-528.09424	304.17661	146.67218	-517.86908	-72.96658	143.12866	-875.85590	-78.71475	141.36687	-882.48517	296.18118	144.71822	
5	0.080	-666.52887	115.05359	1850.45618	-704.68964	-72.85175	1541.74158	-725.05286	286.17337	1535.98401	-613.62122	101.93733	1354.17542	-622.27240	-7.48148	1058.32935	-620.40771	239.91289	1069.26550	-816.74518	100.30724	1060.99963	-681.24823	-72.79588	874.16083	-603.11078	-4.83953	808.09491	-697.32916	-60.46131	758.35492	-714.32245	-34.68659	616.51843	-701.29144	75.07986	574.44006	-720.02979	-32.30393	568.77972	-670.43958	17.44921	520.87756	-761.14673	-45.20276	487.84644	-758.21625	-18.96583	206.87834	-647.95923	-65.83517	163.76575	-606.02112	-71.28732	159.36151	-549.02173	-26.86719	164.62726	-600.20154	28.47342	166.64024	-720.74866	71.70993	216.25304	-674.64539	55.11863	157.20473	-793.06311	38.45070	174.33195	-694.37042	287.08188	874.86749	-598.68591	220.56555	797.79449	-699.59546	271.28088	745.06763	-733.40973	253.48865	641.08344	-694.53058	143.80768	576.81915	-728.68646	247.04575	576.03870	-676.35461	204.21361	535.16937	-766.80841	259.11008	501.63586	-764.85779	227.89989	205.55841	-652.61798	291.99768	157.05260	-615.40338	297.84711	158.53397	-552.72559	244.52617	166.61140	-589.52032	208.21791	174.34129	-714.49103	150.66687	217.74284	-675.42401	166.18275	158.72124	-795.39551	180.18292	184.39287	-528.10773	304.14639	146.64565	-517.86377	-72.94561	143.12451	-875.87762	-78.71106	141.38701	-882.48779	296.15405	144.70668	
6	0.100	-666.21979	115.07259	1850.42700	-704.81384	-72.75121	1541.80029	-724.95996	286.26398	1535.95325	-613.73212	102.04009	1354.14868	-622.54431	-7.37631	1058.41797	-620.75629	240.03267	1069.33667	-817.07379	100.46979	1060.96313	-681.51831	-72.66708	874.25250	-603.23975	-4.79150	808.13721	-697.60468	-60.07148	758.18445	-714.41925	-34.52461	616.54468	-701.15314	75.18018	574.52380	-720.12555	-32.21143	568.93121	-670.42456	17.52025	520.92657	-761.14246	-44.93904	487.87411	-758.22711	-18.92299	206.92570	-647.99042	-65.83400	163.76001	-606.02893	-71.30225	159.34187	-549.03638	-26.87181	164.62849	-600.19202	28.45455	166.65416	-720.74054	71.74835	216.15805	-674.64246	55.09779	157.20528	-793.26343	38.57859	174.35851	-694.56555	287.30353	874.88995	-598.92468	220.45427	797.89795	-699.70758	271.29257	745.08582	-733.63379	253.53995	641.10492	-694.58325	143.95496	576.92432	-728.88818	247.08913	576.16858	-676.46954	204.23833	535.32318	-766.90039	259.13416	501.64127	-764.85614	227.89857	205.55977	-652.65710	292.03287	157.07164	-615.43250	297.85031	158.53154	-552.79089	244.61832	166.65918	-589.62238	208.30620	174.39003	-714.43518	150.71727	217.72812	-675.38995	166.19557	158.71083	-795.37769	180.15906	184.36641	-528.12933	304.11783	146.61070	-517.85498	-72.93924	143.15475	-875.89459	-78.70251	141.38753	-882.49847	296.12335	144.67943	
7	0.120	-665.96283	115.12461	1850.38269	-704.93201	-72.67347	1541.85901	-724.85529	286.35623	1535.95178	-613.81885	102.11552	1354.09302	-622.81860	-7.30282	1058.45435	-621.12500	240.18753	1069.43604	-817.38446	100.60544	1060.93311	-681.76141	-72.52478	874.32672	-603.38727	-4.68183	808.19861	-697.83569	-59.75526	758.11407	-714.45148	-34.35307	616.54095	-700.87646	75.30943	574.59949	-720.16791	-32.08473	569.10431	-670.37445	17.62555	521.01050	-761.05554	-44.64950	487.89816	-758.22412	-18.90177	207.00502	-647.98108	-65.85306	163.76627	-606.02130	-71.30173	159.35028	-549.04657	-26.88342	164.62160	-600.15790	28.44338	166.67526	-720.73077	71.80613	216.03108	-674.62378	55.08293	157.24554	-793.43353	38.74497	174.33994	-694.78802	287.40836	874.81781	-599.15985	220.34344	798.03253	-699.86707	271.24225	745.09674	-733.78693	253.59729	641.15607	-694.64014	144.04102	577.01587	-729.05536	247.14548	576.24274	-676.57489	204.24245	535.45538	-766.93597	259.10861	501.63467	-764.85693	227.89427	205.55562	-652.67932	292.04443	157.07538	-615.47705	297.85757	158.50848	-552.87830	244.71594	166.75961	-589.69263	208.38272	174.47121	-714.36670	150.76602	217.72958	-675.37524	166.24979	158.66791	-795.36713	180.13452	184.31026	-528.14441	304.10278	146.58600	-517.84344	-72.96243	143.20461	-875.90045	-78.70302	141.37021	-882.50140	296.09564	144.64935	
